<svg xmlns="http://www.w3.org/2000/svg" viewBox="0 0 133.1 170.17"><defs><style>.cls-1{font-size:40px;font-family:Moderat-Regular, Moderat;letter-spacing:-0.03em;}.cls-1,.cls-6{fill:#fff;}.cls-2{letter-spacing:0.02em;}.cls-3{letter-spacing:0em;}.cls-4{letter-spacing:0.03em;}.cls-5{fill:none;stroke:#fff;stroke-miterlimit:10;stroke-width:4px;}</style></defs><title>Asset 6</title><g id="Layer_2" data-name="Layer 2"><g id="Layer_1-2" data-name="Layer 1"><text class="cls-1" transform="translate(9.05 158.53)">G<tspan class="cls-2" x="30.24" y="0">Y</tspan><tspan class="cls-3" x="57" y="0">R</tspan><tspan class="cls-4" x="82.08" y="0">O</tspan></text><path class="cls-5" d="M86.51,83c-4.24,11.57-10.8,19-18.16,19C55.57,102,45.2,79.61,45.2,52S55.57,2,68.35,2,91.5,24.39,91.5,52c0,3-.12,5.87-.35,8.69"/><polygon class="cls-6" points="75.28 46.59 78.34 44.01 91.01 59.13 105.17 45.4 107.95 48.27 90.7 65 75.28 46.59"/><path class="cls-5" d="M28.2,69.3A31.89,31.89,0,0,1,25.41,65a27.29,27.29,0,0,1-3.36-13h0c0-19.18,20.73-34.72,46.3-34.72s46.3,15.54,46.3,34.72S93.92,86.72,68.35,86.72a61.88,61.88,0,0,1-10.3-.86,58.25,58.25,0,0,1-6.87-1.6"/><polygon class="cls-6" points="35.75 49.02 31.82 48.23 27.98 67.57 8.96 62.33 7.9 66.19 31.06 72.57 35.75 49.02"/></g></g></svg>