<svg id="Layer_1" data-name="Layer 1" xmlns="http://www.w3.org/2000/svg" viewBox="0 0 103.38 159.34"><defs><style>.cls-1{isolation:isolate;}.cls-2{fill:#fff;}</style></defs><title>P2_VR_Icon_Back-outline</title><g class="cls-1"><g class="cls-1"><path class="cls-2" d="M35.8,151.89c0,4.84-3.2,7.64-8.52,7.64H17v-28H27.2c5.32,0,7.88,2.79,7.88,7a6.31,6.31,0,0,1-4,6.24v.2A6.89,6.89,0,0,1,35.8,151.89Zm-15.24-8.28h6.2c3,0,4.72-1.84,4.72-4.64s-1.84-4.44-4.6-4.44H20.56Zm11.56,8.08A4.85,4.85,0,0,0,27,146.61h-6.4v9.92H27C30.2,156.53,32.12,154.61,32.12,151.69Z" transform="translate(-15.66 -0.59)"/><path class="cls-2" d="M57,151.89H45.92l-2.56,7.64H39.48l9.76-28h4.48l9.76,28H59.6ZM56,148.77l-4.36-13h-.28l-4.36,13Z" transform="translate(-15.66 -0.59)"/><path class="cls-2" d="M80.2,159.93c-8,0-13.28-6-13.28-14.28s5.28-14.52,13.28-14.52c6,0,10.64,3.36,11.63,9.16H88a7.62,7.62,0,0,0-7.76-5.8c-5.88,0-9.64,5-9.64,11.16,0,6.28,3.92,10.92,9.6,10.92,4.2,0,7.16-2.28,8.24-5.56h3.84C91.24,156.41,86.4,159.93,80.2,159.93Z" transform="translate(-15.66 -0.59)"/><path class="cls-2" d="M104.48,146.81h-2.16v12.72H98.68v-28h3.64v12h2.16l9.32-12H118L107.56,145v.2L119,159.53h-4.2Z" transform="translate(-15.66 -0.59)"/></g></g><rect class="cls-2" x="64.82" y="-18.61" width="4" height="140.71" transform="translate(-32.68 61.82) rotate(-45)"/><rect class="cls-2" x="-3.54" y="49.75" width="140.71" height="4" transform="translate(-32.68 61.82) rotate(-45)"/></svg>